<svg width="193" height="50" viewBox="0 0 193 50" fill="none" xmlns="http://www.w3.org/2000/svg">
<path d="M10.5 13.5L3.5 23.5L18.5 16L46.5 2.5L41.5 18L37.5 30.2921L33.5 48.5H19L1 48L51.5 23.5L49.5 32.5L46.5 47.5L18.5 2.5L10.5 13.5Z" stroke="#00B012" stroke-opacity="0.3" stroke-width="2" stroke-linejoin="round"/>
<circle cx="1.5" cy="47.5" r="1.5" fill="#00B012"/>
<circle cx="3.5" cy="23.5" r="1.5" fill="#00B012"/>
<circle cx="18.5" cy="2.5" r="1.5" fill="#00B012"/>
<circle cx="33.5" cy="48.5" r="1.5" fill="#00B012"/>
<circle cx="46.5" cy="2.5" r="1.5" fill="#00B012"/>
<circle cx="51.5" cy="23.5" r="1.5" fill="#00B012"/>
<circle cx="46.5" cy="47.5" r="1.5" fill="#00B012"/>
<path d="M1.5 48L18.5 2.5L33 48L4.5 23.5H51.5L46.5 48V2.5" stroke="#00B012" stroke-width="2" stroke-linejoin="round"/>
<path d="M66.9004 20H64.2441L70.1719 6.03516H72.9551L79.0098 20H76.2266L74.6348 16.1914H69.9961L70.8848 13.9453H73.6973L71.5 8.70117L66.9004 20ZM83.3066 6.03516V20H80.7188V6.03516H83.3066ZM90.3965 20V9.74609C90.3965 6.93359 91.9329 5.52734 95.0059 5.52734C95.8457 5.52734 96.6074 5.65755 97.291 5.91797V7.96875C96.6465 7.70833 95.9466 7.57812 95.1914 7.57812C93.7201 7.57812 92.9844 8.30078 92.9844 9.74609H96.0605V11.7969H92.9844V20H90.3965ZM99.7422 14.834C99.7422 16.9759 100.572 18.0469 102.232 18.0469C103.893 18.0469 104.723 16.9759 104.723 14.834C104.723 12.7441 103.893 11.6992 102.232 11.6992C100.572 11.6992 99.7422 12.7441 99.7422 14.834ZM97.1543 14.873C97.1543 11.4355 98.847 9.7168 102.232 9.7168C105.618 9.7168 107.311 11.4355 107.311 14.873C107.311 18.304 105.618 20.0195 102.232 20.0195C98.86 20.0195 97.1673 18.304 97.1543 14.873ZM109.264 20V9.74609H111.266L111.588 11.0547C112.486 10.1823 113.437 9.74609 114.439 9.74609V11.8359C113.476 11.8359 112.613 12.2363 111.852 13.0371V20H109.264ZM129.674 6.03516V8.28125H125.67V20H123.082V8.28125H119.078V6.03516H129.674ZM130.904 19.4141V17.0703C132.304 17.5911 133.886 17.8516 135.65 17.8516C137.792 17.8516 138.863 17.1354 138.863 15.7031C138.863 14.6615 138.206 14.1406 136.891 14.1406H134.703C131.845 14.1406 130.416 12.8385 130.416 10.2344C130.416 7.36979 132.451 5.9375 136.52 5.9375C138.082 5.9375 139.563 6.16536 140.963 6.62109V8.96484C139.563 8.44401 138.082 8.18359 136.52 8.18359C134.176 8.18359 133.004 8.86719 133.004 10.2344C133.004 11.276 133.57 11.7969 134.703 11.7969H136.891C139.931 11.7969 141.451 13.099 141.451 15.7031C141.451 18.6328 139.518 20.0977 135.65 20.0977C133.886 20.0977 132.304 19.8698 130.904 19.4141ZM143.648 20V6.03516H149.898C152.75 6.03516 154.176 7.34701 154.176 9.9707C154.176 12.8158 152.226 14.5378 148.326 15.1367L147.955 12.832C150.299 12.4089 151.471 11.4811 151.471 10.0488C151.471 8.88997 150.891 8.31055 149.732 8.31055H146.236V20H143.648ZM76.5977 41.4141C75.3932 41.8698 74.026 42.0977 72.4961 42.0977C67.4831 42.0977 64.9766 39.6725 64.9766 34.8223C64.9766 30.2324 67.4831 27.9375 72.4961 27.9375C74.026 27.9375 75.3932 28.1654 76.5977 28.6211V30.9648C75.3932 30.444 74.0911 30.1836 72.6914 30.1836C69.3385 30.1836 67.6621 31.7298 67.6621 34.8223C67.6621 38.1751 69.3385 39.8516 72.6914 39.8516C74.0911 39.8516 75.3932 39.5911 76.5977 39.0703V41.4141ZM80.8945 36.834C80.8945 38.9759 81.7246 40.0469 83.3848 40.0469C85.0449 40.0469 85.875 38.9759 85.875 36.834C85.875 34.7441 85.0449 33.6992 83.3848 33.6992C81.7246 33.6992 80.8945 34.7441 80.8945 36.834ZM78.3066 36.873C78.3066 33.4355 79.9993 31.7168 83.3848 31.7168C86.7702 31.7168 88.4629 33.4355 88.4629 36.873C88.4629 40.304 86.7702 42.0195 83.3848 42.0195C80.0124 42.0195 78.3197 40.304 78.3066 36.873ZM90.416 42V31.7461H92.418L92.7207 33.2305C93.6387 32.2409 94.7422 31.7461 96.0312 31.7461C97.3203 31.7461 98.2025 32.2148 98.6777 33.1523C99.7259 32.2148 100.823 31.7461 101.969 31.7461C104.326 31.7461 105.504 33.0449 105.504 35.6426V42H102.916V35.5449C102.916 34.4056 102.402 33.8359 101.373 33.8359C100.605 33.8359 99.8659 34.181 99.1562 34.8711V42H96.5684V35.5742C96.5684 34.4154 96.0931 33.8359 95.1426 33.8359C94.3874 33.8359 93.6745 34.181 93.0039 34.8711V42H90.416ZM110.543 39.3242C111.188 39.6758 111.881 39.8516 112.623 39.8516C114.166 39.8516 114.938 38.7676 114.938 36.5996C114.938 34.7572 114.085 33.8359 112.379 33.8359C111.643 33.8359 111.031 33.8815 110.543 33.9727V39.3242ZM107.955 32.166C109.316 31.8861 110.755 31.7461 112.271 31.7461C115.755 31.7461 117.496 33.3704 117.496 36.6191C117.496 40.2064 115.875 42 112.633 42C111.943 42 111.246 41.8372 110.543 41.5117V45.7109H107.955V32.166ZM123.785 31.7461C126.897 31.7461 128.453 33.3346 128.453 36.5117C128.453 36.9349 128.424 37.3581 128.365 37.7812H121.559C121.559 39.2266 122.62 39.9492 124.742 39.9492C125.777 39.9492 126.812 39.8516 127.848 39.6562V41.707C126.943 41.9023 125.842 42 124.547 42C120.829 42 118.971 40.252 118.971 36.7559C118.971 33.416 120.576 31.7461 123.785 31.7461ZM121.559 35.9844H125.934V35.9062C125.934 34.487 125.217 33.7773 123.785 33.7773C122.418 33.7773 121.676 34.513 121.559 35.9844ZM130.25 30.0859H132.164L132.555 31.7461H135.133V33.7969H132.838V38.5137C132.838 39.4707 133.251 39.9492 134.078 39.9492H135.133V42H132.828C131.109 42 130.25 41.0788 130.25 39.2363V30.0859ZM139.488 28.0352V30.0859H136.9V28.0352H139.488ZM139.488 31.7461V42H136.9V31.7461H139.488ZM141.793 30.0859H143.707L144.098 31.7461H146.676V33.7969H144.381V38.5137C144.381 39.4707 144.794 39.9492 145.621 39.9492H146.676V42H144.371C142.652 42 141.793 41.0788 141.793 39.2363V30.0859ZM151.031 28.0352V30.0859H148.443V28.0352H151.031ZM151.031 31.7461V42H148.443V31.7461H151.031ZM155.582 36.834C155.582 38.9759 156.412 40.0469 158.072 40.0469C159.732 40.0469 160.562 38.9759 160.562 36.834C160.562 34.7441 159.732 33.6992 158.072 33.6992C156.412 33.6992 155.582 34.7441 155.582 36.834ZM152.994 36.873C152.994 33.4355 154.687 31.7168 158.072 31.7168C161.458 31.7168 163.15 33.4355 163.15 36.873C163.15 40.304 161.458 42.0195 158.072 42.0195C154.7 42.0195 153.007 40.304 152.994 36.873ZM165.104 42V31.7461H167.105L167.428 33.25C168.411 32.2474 169.531 31.7461 170.787 31.7461C173.215 31.7461 174.43 33.0091 174.43 35.5352V42H171.842V35.5352C171.842 34.4023 171.279 33.8359 170.152 33.8359C169.312 33.8359 168.492 34.1712 167.691 34.8418V42H165.104Z" fill="#1D1D1D"/>
</svg>
